PathFileType	4	(X/Y/Z)	C:/Users/beibeiliu/ov580/test_trc/User3\sequence.27_training_dense_right.trc
DataRate	CameraRate	NumFrames	NumMarkers	Units	OrigDataRate	OrigDataStartFrame	OrigNumFrames
120	120	24	19	mm	120	1	276
Frame#	Time	ThumbCMC			ThumbMCP			ThumbIP			ThumbTip			IndexMCP			IndexPIP			IndexTip			MiddleMCP			MiddlePIP			MiddleTip			RingMCP			RingPIP			RingTip			PinkyMCP			PinkyPIP			PinkyTip			BackHand1			BackHand2			BackHand3	
		X0	Y0	Z0	X1	Y1	Z1	X2	Y2	Z2	X3	Y3	Z3	X4	Y4	Z4	X5	Y5	Z5	X6	Y6	Z6	X7	Y7	Z7	X8	Y8	Z8	X9	Y9	Z9	X10	Y10	Z10	X11	Y11	Z11	X12	Y12	Z12	X13	Y13	Z13	X14	Y14	Z14	X15	Y15	Z15	X16	Y16	Z16	X17	Y17	Z17	X18	Y18	Z18	
0	0	148.927	-22.6014	28.3103	128.502	-33.058	0.954248	125.637	-43.7098	-28.6599	130.186	-53.7773	-49.6043	160.955	-11.2271	-49.3494	156.097	-20.403	-78.2186	149.909	-28.3739	-98.663	187.894	-15.5227	-55.3098	182.536	-26.8367	-81.2114	183.139	-45.0852	-108.64	203.863	-23.0966	-47.7087	204.973	-34.5919	-72.2227	207.634	-52.9528	-94.5076	222.368	-30.0579	-32.3697	229.311	-41.1901	-52.7149	234.126	-56.0384	-69.3651	204.464	-3.29223	3.80727	204.632	0.94924	35.185	172.27	2.18432	19.3018	
1	0.00833333	146.881	-21.8623	23.5798	132.227	-32.7805	2.96951	128.054	-43.4252	-29.348	127.352	-55.4135	-48.3412	160.868	-11.885	-48.8629	153.669	-18.8136	-77.5196	153.24	-30.3379	-101.119	183.964	-15.3454	-53.9008	181.293	-28.7831	-84.1712	181.764	-45.4464	-110	201.41	-22.9567	-49.385	209.095	-33.9054	-68.6723	205.909	-51.9485	-93.7498	221.405	-30.3668	-30.8535	229.245	-41.5453	-53.1234	229.051	-56.9077	-71.6803	204.107	-3.99344	4.38205	204.768	-0.25589	35.1885	171.852	3.41016	16.4179	
2	0.0166667	145.595	-21.9685	28.9417	133.33	-32.9346	0.691335	127.001	-43.7887	-28.9331	131.659	-54.1445	-48.5017	161.289	-11.8799	-49.1294	152.904	-17.8549	-73.5879	153.643	-28.6239	-98.0089	183.872	-16.6187	-58.5957	180.701	-28.1464	-83.5774	181.542	-46.194	-110.851	204.288	-23.2647	-47.711	204.881	-33.3042	-68.5243	206.364	-51.8329	-92.0423	221.805	-29.2266	-32.2263	229.038	-41.0409	-50.2643	230.374	-54.1349	-68.6275	205.227	-3.88309	3.50229	208.134	0.176653	32.7228	174.07	3.7236	18.1567	
3	0.025	144.805	-21.4784	25.781	130.244	-32.7131	2.42085	128.29	-43.1905	-30.332	130.648	-55.1727	-50.423	158.967	-11.2103	-47.5724	152.733	-19.7108	-77.6503	154.345	-29.632	-99.5553	187.706	-15.9534	-56.7271	184.342	-28.8807	-84.5878	183.413	-46.14	-108.926	202.527	-22.1098	-49.8679	205.783	-34.4661	-72.7832	204.365	-52.0874	-92.8192	221.501	-29.0561	-31.2518	227.729	-39.5095	-49.0588	230.865	-56.8036	-71.889	202.596	-1.64652	3.02243	206.428	-1.51629	35.2142	170.396	3.15924	14.3713	
4	0.0333333	143.898	-20.5901	24.4498	131.642	-32.3979	1.64059	127.35	-42.9731	-29.0619	131.907	-54.9809	-50.6084	160.792	-11.3695	-51.2824	152.778	-17.7783	-74.8785	154.653	-29.8216	-98.4603	183.355	-14.097	-53.4925	182.284	-28.8731	-84.2132	180.415	-44.1232	-107.95	202.089	-22.0814	-44.5976	202.845	-34.4869	-73.0668	204.518	-51.9074	-94.6304	222.87	-29.9912	-28.3138	228.188	-41.0163	-53.4547	230.352	-57.8806	-71.306	203.26	-2.77965	6.48899	209.551	-0.229119	35.3433	175.792	2.53373	18.519	
5	0.0416667	144.713	-21.627	23.6975	133.926	-32.8937	1.70705	128.28	-43.7286	-24.1951	131.088	-54.5581	-46.8936	157.932	-11.8662	-49.2263	157.045	-19.5506	-76.6819	148.657	-30.3745	-101.013	186.004	-14.901	-53.2527	185.151	-27.0413	-80.9348	180.241	-43.4801	-106.116	201.172	-22.6185	-47.7409	206.36	-33.3269	-69.9104	202.894	-50.1668	-90.4841	224.463	-30.8888	-31.3473	226.806	-39.3953	-49.833	232.629	-57.9217	-72.4893	207.481	-4.5998	4.29684	206.738	-1.57044	32.8674	175.545	2.07998	14.9358	
6	0.05	146.787	-22.5361	24.7109	129.866	-32.5439	2.15344	124.325	-43.5676	-28.3331	127.135	-55.5732	-48.1889	159.05	-11.9991	-49.5067	151.717	-19.0575	-76.9921	154.073	-30.083	-99.8403	183.001	-14.2722	-54.6466	182.491	-26.8841	-81.034	180.737	-44.6716	-107.815	205.126	-22.7061	-47.7172	207.213	-33.8377	-69.8503	206.491	-50.4746	-90.6638	221.366	-29.8702	-28.9897	229.925	-42.2557	-51.2022	231.953	-58.3584	-72.3494	203.586	-2.48889	6.84536	203.94	-1.14636	35.0155	172.78	1.79398	15.5627	
7	0.0583333	145.155	-22.9795	28.6514	130.296	-32.8432	1.64443	125.195	-43.6199	-27.199	128.111	-54.7369	-50.2333	156.765	-11.5427	-50.3122	154.683	-20.906	-78.6722	151.585	-30.758	-102.664	184.679	-16.1285	-56.5063	182.431	-28.1552	-82.668	183.52	-46.9174	-111.621	205.4	-24.0146	-48.5596	208.032	-35.0567	-71.2019	203.865	-49.6804	-91.4247	221.57	-29.2242	-28.2452	227.225	-39.1215	-49.1173	233.543	-55.5224	-71.19	202.829	-1.43323	1.87748	204.426	-0.0818097	36.2723	170.123	2.8862	18.0281	
8	0.0666667	148.092	-23.065	23.7296	130.341	-33.287	1.94434	126.809	-43.355	-25.0423	127.542	-55.1339	-47.8853	158.904	-12.9706	-51.4218	153.482	-19.6077	-77.4064	153.182	-29.204	-98.4386	185.501	-15.9091	-55.3784	183.508	-29.8341	-84.4778	180.984	-43.7586	-106.49	202.227	-22.0714	-45.0519	204.756	-33.6594	-68.7812	205.392	-52.117	-93.765	223.051	-29.8295	-29.9168	226.263	-40.6067	-51.5348	234.422	-56.2138	-67.7915	207.091	-2.45914	3.52743	207.796	-1.46833	33.1462	173.699	1.29228	18.81	
9	0.075	145.469	-22.2281	28.9746	130.565	-33.9572	1.73748	125.796	-43.4136	-25.1022	128.434	-54.3838	-49.3882	160.995	-12.4033	-50.7559	151.936	-19.0984	-73.3207	151.95	-31.3392	-100.06	182.228	-15.4598	-57.6051	182.833	-29.1338	-83.8252	179.803	-42.8897	-107.291	203.177	-22.3291	-44.7188	203.641	-33.3746	-68.4168	203.763	-50.9202	-91.8071	225.129	-30.5554	-29.4084	227.767	-40.3926	-50.6137	230.496	-53.9715	-70.274	201.787	-4.49644	6.36466	207.674	-2.46424	32.4496	175.795	2.88523	19.9614	
10	0.0833333	148.361	-21.8436	26.0659	129.151	-32.7162	-0.380365	124.092	-44.6596	-27.3399	130.685	-55.2668	-49.7329	158.739	-11.3309	-46.9141	151.825	-20.0615	-77.0513	154.915	-29.3612	-97.9054	184.722	-16.3168	-56.2186	185.575	-27.0758	-80.363	182.183	-44.108	-106.952	204.734	-23.269	-48.0691	205.382	-33.3699	-69.2272	204.715	-50.8834	-91.4556	225.429	-31.335	-29.3633	227.354	-40.3287	-50.4353	230.749	-56.3746	-72.6172	202.222	-3.85035	8.06247	206.545	-0.359878	36.3756	174.576	0.710377	20.4106	
11	0.0916667	146.727	-23.0719	29.9195	133.923	-32.8111	2.3689	126.799	-44.3911	-30.1427	130.428	-55.991	-52.0682	157.08	-12.0261	-49.6183	154.26	-19.5896	-76.7647	152.412	-30.92	-100.437	182.126	-15.079	-53.5407	183.813	-27.5972	-82.2601	178.898	-43.5435	-108.248	204.036	-22.3722	-47.763	206.337	-33.7622	-69.218	203.32	-52.5523	-93.0612	220.869	-30.088	-33.7463	228.209	-41.8311	-53.6344	231.746	-57.5397	-70.9424	204.702	-3.96682	2.60608	206.066	-1.51072	34.4034	170.826	1.14917	15.946	
12	0.1	144.747	-22.647	28.263	133.229	-33.7545	1.38039	126.824	-45.3143	-25.0197	129.853	-55.9155	-48.0571	156.688	-10.6707	-52.2152	154.733	-19.3441	-76.7726	149.522	-28.6941	-96.78	181.908	-15.1518	-58.8055	185.118	-29.456	-84.2955	181.25	-45.0104	-108.053	202.534	-22.4528	-49.3739	206.957	-35.4981	-72.6304	201.26	-51.3854	-93.7645	223.268	-30.0742	-33.664	225.5	-40.9657	-53.2234	227.15	-57.0471	-71.9342	203.484	-1.65116	3.58292	206.191	-2.50475	33.3228	171.894	3.4981	19.3764	
13	0.108333	149.696	-23.0834	25.3079	133.343	-35.5891	0.485421	129.275	-45.5958	-26.4592	129.714	-57.7472	-46.596	161.036	-10.9526	-49.0182	156.224	-18.5833	-76.3153	150.92	-30.534	-101.579	187.156	-13.9439	-54.2406	184.518	-26.1597	-81.0585	180.886	-46.0009	-110.021	205.255	-22.5066	-50.1987	200.807	-32.6187	-71.0986	202.344	-50.1981	-90.7481	224.044	-30.2241	-30.549	225.293	-43.141	-54.8272	223.105	-56.2459	-70.3306	204.003	-3.01507	6.98284	207.575	-2.59511	32.4826	172.369	3.75738	19.8634	
14	0.116667	148.314	-23.1209	25.0495	131.273	-37.13	1.45528	129.707	-47.5608	-26.9862	132.624	-59.1158	-52.3624	159.017	-8.08056	-52.2697	156.308	-18.3185	-78.0907	149.936	-28.7469	-98.4829	182.379	-12.5239	-55.5396	183.957	-24.517	-80.4367	177.473	-45.3533	-108.091	205.479	-20.9555	-48.4215	202.497	-34.0588	-74.5132	197.336	-55.2867	-92.5898	221.071	-29.8998	-31.2025	225.495	-41.6161	-53.3351	217.951	-61.8711	-72.2894	208.107	-4.03433	5.96087	206.703	-2.12767	34.964	174.171	2.33902	16.7687	
15	0.125	147.264	-21.3766	24.5576	134.881	-36.5658	0.264031	129.675	-47.7257	-27.2996	134.616	-58.6649	-48.9947	159.239	-5.42644	-50.7701	153.798	-15.8243	-77.6219	149.026	-26.7647	-98.386	183.521	-10.7042	-57.1996	178.262	-23.7211	-83.9367	173.289	-43.6306	-105.942	200.288	-17.8993	-49.184	204.536	-31.329	-71.49	196.517	-57.2561	-89.0073	220.728	-28.4471	-32.4843	221.158	-41.8463	-54.5438	211.514	-63.5193	-68.6945	210.475	-2.65385	7.51289	211.844	-2.35934	33.3981	175.805	3.19414	21.0856	
16	0.133333	151.412	-20.9978	25.5638	134.596	-35.1249	-1.66615	134.925	-45.6128	-31.3079	138.875	-57.7462	-52.2406	160.813	-2.60329	-51.0616	153.854	-11.4396	-76.0512	153.5	-25.9583	-99.7485	183.715	-5.96659	-53.5474	178.84	-19.8169	-81.3238	176.461	-44.8094	-102.604	201.441	-15.5648	-44.3421	199.648	-32.801	-72.8616	190.311	-60.4191	-83.9267	220.981	-27.4578	-30.3454	215.032	-43.564	-55.7946	203.308	-67.2263	-62.9024	209.554	-1.61021	8.77515	212.581	-2.7028	37.6878	178.096	3.91665	22.8055	
17	0.141667	149.043	-18.149	23.408	139.407	-33.5047	-5.09387	133.241	-45.2194	-30.4957	140.453	-55.5603	-51.4839	164.646	-0.0430731	-51.4681	158.456	-8.82673	-77.1368	154.02	-23.2127	-97.3243	187.087	-5.5578	-56.6093	181.066	-20.9844	-84.2591	170.547	-47.1123	-101.35	200.681	-14.0037	-48.233	199.891	-36.561	-72.7576	186.223	-61.2683	-74.9475	217.393	-26.6874	-35.224	212.062	-46.1561	-55.4464	201.62	-71.3234	-55.2642	211.577	-1.28525	7.94411	212.863	-2.88611	39.0913	176.213	6.31569	22.4275	
18	0.15	147.058	-17.5462	26.7958	138.6	-31.8411	-6.23882	134.113	-44.0635	-31.9883	143.896	-54.2338	-55.8409	161.687	3.67907	-48.8034	158.397	-4.39126	-75.2993	155.493	-22.5076	-99.9341	184.765	-1.11767	-57.7514	183.059	-16.2503	-81.7999	173.891	-50.0782	-97.398	205.407	-14.3409	-46.1661	198.54	-33.3231	-70.8977	183.111	-63.7127	-64.2508	217.639	-26.4778	-33.347	207.625	-47.8692	-54.2683	197.13	-69.317	-44.2264	207.417	0.724437	5.52241	209.321	-3.87144	35.803	179.439	7.68858	21.3746	
19	0.158333	148.639	-16.4872	23.446	142.246	-30.0497	-7.24129	140.085	-41.4277	-32.0229	150.553	-52.202	-55.9224	162.971	4.94432	-46.292	157.691	-2.39985	-76.0857	151.078	-17.9287	-96.6561	190.158	-0.720423	-57.1867	182.776	-16.5261	-83.4584	170.511	-50.2124	-94.145	203.329	-14.6909	-51.2758	193.39	-37.0325	-69.3795	179.209	-63.4506	-51.1639	215.162	-27.0752	-33.9397	206.501	-49.3014	-51.3452	187.626	-66.5684	-31.9001	207.758	1.93974	3.12469	212.536	-2.43907	32.7465	180.895	7.96312	23.3599	
20	0.166667	152.699	-16.4102	22.1715	141.365	-29.5012	-4.35311	139.525	-41.202	-35.9736	159.74	-48.6869	-53.0521	167.752	5.61325	-47.8023	157.285	-0.556187	-75.7022	151.211	-18.4872	-95.7349	187.266	3.21345	-52.7863	183.355	-12.0677	-82.2311	165.552	-49.1263	-91.0126	201.12	-15.022	-50.6657	189.883	-41.3543	-64.9237	180.839	-61.5049	-42.7234	217.029	-31.2106	-37.5617	204.463	-53.7518	-46.4354	190.384	-64.9345	-20.1147	213.962	-0.0710227	7.81493	215.549	-3.30164	36.1017	177.471	9.79896	19.0501	
21	0.175	151.265	-13.9145	22.3519	144.659	-27.5082	-8.19446	143.489	-38.5103	-38.183	161.453	-48.3363	-53.011	166.676	7.69085	-50.6484	158.539	1.9693	-74.1744	150.248	-21.2043	-97.0627	188.504	3.50209	-55.2544	177.604	-12.7775	-83.6982	165.08	-47.1345	-89.1155	201.941	-18.1894	-51.5701	190.347	-41.8575	-61.5007	178.019	-59.5675	-34.6678	212.967	-34.019	-39.7	196.662	-54.9273	-41.1024	186.365	-59.1975	-13.1216	209.693	1.96714	8.20986	214.116	-4.60958	35.9743	183.19	9.56631	22.9308	
22	0.183333	152.142	-13.0733	23.6473	143.284	-26.2799	-4.5454	147.202	-34.8404	-38.5087	165.994	-45.5416	-53.1657	165.262	9.86573	-49.4584	157.863	-0.727687	-75.4249	151.33	-19.272	-94.1988	189.765	3.04857	-51.335	180.634	-11.4887	-81.3754	162.965	-46.5144	-88.9442	201.415	-18.5074	-46.8646	186.065	-44.205	-58.7199	176.23	-58.3388	-27.9942	207.733	-33.7944	-38.2763	195.093	-57.5629	-36.9671	181.612	-54.9656	-8.20766	210.185	2.98259	3.59869	212.099	-4.98378	38.1846	182.078	10.0541	20.4258	
23	0.191667	149.269	-12.9159	26.9037	141.84	-25.8783	-5.03462	146.229	-35.2122	-32.6129	162.859	-46.8156	-53.7313	167.033	10.1571	-44.1264	155.785	3.34003	-74.2756	152.595	-14.3345	-93.1945	185.262	6.12019	-50.075	178.857	-8.70498	-80.9851	163.531	-38.0222	-93.9459	197.177	-19.8257	-46.8424	184.134	-48.8939	-53.4483	170.314	-54.1544	-21.6774	207.415	-35.7709	-36.8792	191.098	-55.121	-36.3251	183.256	-53.3126	-3.87369	210.759	0.632547	3.5858	213.835	-3.5873	38.4304	181.694	10.707	25.6739	
